<svg
  xmlns="http://www.w3.org/2000/svg"
  viewBox="0 0 24 24"
  class="icon themebutton__icon themebutton__icon--dark"
  aria-hidden="true"
>
  <path fill="none" d="M0 0h24v24H0z" />
  <path
    d="M12 9c1.65 0 3 1.35 3 3s-1.35 3-3 3-3-1.35-3-3 1.35-3 3-3m0-2a5 5 0 1 0 0 10 5 5 0 0 0 0-10zM2 13h2c.55 0 1-.45 1-1s-.45-1-1-1H2c-.55 0-1 .45-1 1s.45 1 1 1zm18 0h2c.55 0 1-.45 1-1s-.45-1-1-1h-2c-.55 0-1 .45-1 1s.45 1 1 1zM11 2v2c0 .55.45 1 1 1s1-.45 1-1V2c0-.55-.45-1-1-1s-1 .45-1 1zm0 18v2c0 .55.45 1 1 1s1-.45 1-1v-2a1 1 0 0 0-1-1 1 1 0 0 0-1 1zM5.99 4.58a1 1 0 1 0-1.41 1.41l1.06 1.06a1 1 0 1 0 1.41-1.41L5.99 4.58zm12.37 12.37a1 1 0 1 0-1.41 1.41l1.06 1.06a1 1 0 1 0 1.41-1.41l-1.06-1.06zm1.06-10.96a1 1 0 1 0-1.41-1.41l-1.06 1.06a1 1 0 1 0 1.41 1.41l1.06-1.06zM7.05 18.36a1 1 0 1 0-1.41-1.41l-1.06 1.06a1 1 0 1 0 1.41 1.41l1.06-1.06z"
  />
</svg>
