<svg id="ab7ff2ac-59c3-454a-bf5b-ccd3c2704e5d" data-name="f7c8b6b0-36ab-4da3-9ddd-7b794d0fa3ba" xmlns="http://www.w3.org/2000/svg" viewBox="0 0 244.18 34.5">
  <defs>
    <style>
    .aab1bf3b-aaf8-4ddd-b71f-398ad6fbcd9c{fill:#ff8200;}
    .aab1bf3b-aaf8-4ddd-b71f-398ad6fbcd9c,.e5a38077-ec68-4b04-bab7-f183ca1062c8{fill-rule:evenodd;}
    .e5a38077-ec68-4b04-bab7-f183ca1062c8{fill:#15232d;}
    .e4b0a577-6542-4cb0-b215-ab079da2e0e2{fill:#fff;}

    @media (prefers-color-scheme:dark) {
      .e5a38077-ec68-4b04-bab7-f183ca1062c8 {
        fill: #d9d9d9;
      }
      }
    </style></defs><polyline class="aab1bf3b-aaf8-4ddd-b71f-398ad6fbcd9c" points="86.43 17.25 96.94 34.5 244.18 34.5 244.18 0 96.19 0"/><polygon class="e5a38077-ec68-4b04-bab7-f183ca1062c8" points="5.36 18.74 18 18.74 18 34.5 23.35 34.5 23.35 0 18 0 18 13.79 5.36 13.79 5.36 0 0 0 0 34.5 5.36 34.5 5.36 18.74"/><polygon class="e5a38077-ec68-4b04-bab7-f183ca1062c8" points="34.5 0 24.86 34.5 30.7 34.5 34.28 21.64 42.61 21.64 41.44 16.72 35.65 16.72 40.34 0 34.5 0"/><polygon class="e5a38077-ec68-4b04-bab7-f183ca1062c8" points="40.82 0 49.14 34.5 54.98 34.5 61.55 6.54 68.11 34.5 73.95 34.5 82.27 0 76.44 0 70.96 27.66 64.46 0 58.63 0 52.14 27.66 46.67 0 40.82 0"/><polygon class="e5a38077-ec68-4b04-bab7-f183ca1062c8" points="81.74 16.73 92.43 34.5 98.76 34.5 88.06 16.74 98.52 0 94.97 0 92.19 0 81.74 16.73"/><path class="e4b0a577-6542-4cb0-b215-ab079da2e0e2" d="M114.79,17.59c0-5.91,3.1-10.67,13.18-11l.23,3.59c-8.29-.33-9.59,2.57-9.59,6.75,0,4.92,1.86,7.63,7.08,7.53,0-2.05-.14-5-.17-7.47H129c0,4.15,0,7.24,0,9.85C119.36,29,114.79,24.83,114.79,17.59Z"/><path class="e4b0a577-6542-4cb0-b215-ab079da2e0e2" d="M142,27.14h-3.79V10.05h-5.93l.26-3.13H147.8v3.13H142Z"/><path class="e4b0a577-6542-4cb0-b215-ab079da2e0e2" d="M159.06,27.14v-3h5.48V12l-5,.13-.07-2.64,5-.53V6.56L168,6.27V24.11h4.89l-.29,3Z"/><path class="e4b0a577-6542-4cb0-b215-ab079da2e0e2" d="M177,27.14v-3h5.48V12l-5,.13-.06-2.64,5-.53V6.56L186,6.27V24.11h4.89l-.29,3Z"/><path class="e4b0a577-6542-4cb0-b215-ab079da2e0e2" d="M196.44,24.83c5.18-2.09,7.37-4.31,8.12-7.18-4.6,3.3-10.31,1.27-10.31-4.17a6.81,6.81,0,0,1,7.11-6.95c4.11,0,6.92,2.74,6.92,7.93,0,5.64-3.2,10.17-10.34,13.4Zm8.45-9.36v-.65c0-3.76-1.67-5.42-3.88-5.42-1.93,0-3.4,1.31-3.4,3.72C197.61,16.77,201,17.85,204.89,15.47Z"/><path class="e4b0a577-6542-4cb0-b215-ab079da2e0e2" d="M212.88,27.14v-3h5.48V12l-5,.13-.06-2.64,5-.53V6.56l3.49-.29V24.11h4.89l-.29,3Z"/>
</svg>
